#!OML:ASF F:\VICON\USERDATA\INSTALL\rory3\rory3.ASF
:FULLY-SPECIFIED
:DEGREES
196
root 5.07062 17.7168 6.42437 -1.07248 -4.16904 -6.98632
lowerback 9.37654 2.15666 5.3105
upperback 0.703886 3.49387 1.53443
thorax -4.30223 1.64115 -1.82701
lowerneck -18.3072 -3.3891 -1.47045
upperneck 14.8929 -4.54859 1.71326
head 7.6703 -2.08196 0.267148
rclavicle -1.41634e-014 -1.90833e-014
rhumerus -19.5274 -9.31895 -83.3351
rradius 33.108
rwrist -2.99255
rhand -18.5278 23.2075
rfingers 7.12502
rthumb 7.7609 -6.6301
lclavicle -1.41634e-014 -1.90833e-014
lhumerus -38.6652 4.19033 83.0412
lradius 26.9485
lwrist 1.36955
lhand -27.8581 18.9559
lfingers 7.12502
lthumb -1.24884 48.9319
rfemur 11.6753 8.52535 34.4794
rtibia 25.0686
rfoot -20.6441 -6.07891
rtoes -3.2604
lfemur -25.8235 -4.43894 -11.2289
ltibia 17.4734
lfoot -5.67465 4.38949
ltoes -3.05232
197
root 5.09078 17.6951 6.62274 -1.12558 -4.07702 -7.0289
lowerback 9.50911 2.19051 5.41018
upperback 0.677994 3.55854 1.50774
thorax -4.39147 1.66789 -1.92512
lowerneck -18.3187 -3.40169 -1.44198
upperneck 14.8347 -4.57605 1.73613
head 7.65336 -2.09149 0.267134
rclavicle 3.44146e-015 -9.93923e-016
rhumerus -19.7193 -9.71659 -83.2664
rradius 33.3187
rwrist -2.86847
rhand -18.5933 23.3585
rfingers 7.12502
rthumb 7.6977 -6.48137
lclavicle 3.44146e-015 -9.93923e-016
lhumerus -38.7481 3.9924 83.1223
lradius 26.7923
lwrist 2.14584
lhand -28.4943 17.8448
lfingers 7.12502
lthumb -1.86327 47.8164
rfemur 11.8951 8.47925 34.516
rtibia 25.9598
rfoot -20.1678 -6.04623
rtoes -4.76304
lfemur -25.9361 -3.84304 -11.7215
ltibia 19.081
lfoot -5.41005 3.59783
ltoes -3.73266
198
root 5.11328 17.6957 6.8365 -1.19312 -3.94751 -6.96546
lowerback 9.54369 2.20392 5.48361
upperback 0.677541 3.58274 1.42667
thorax -4.39983 1.67747 -2.05482
lowerneck -18.4604 -3.44685 -1.39204
upperneck 14.8785 -4.65682 1.77077
head 7.6931 -2.12195 0.258159
rclavicle -6.26296e-014 -3.51849e-014
rhumerus -19.9304 -10.0085 -83.1957
rradius 33.4123
rwrist -2.49943
rhand -18.6808 23.5579
rfingers 7.12502
rthumb 7.61327 -6.28505
lclavicle -6.26296e-014 -3.51849e-014
lhumerus -38.441 5.04367 82.4276
lradius 26.6839
lwrist -0.373244
lhand -24.6223 21.3819
lfingers 7.12502
lthumb 1.87635 51.3534
rfemur 12.1963 8.25772 34.3806
rtibia 26.7918
rfoot -19.4372 -5.93823
rtoes -6.77775
lfemur -26.0635 -3.24681 -12.3337
ltibia 20.7452
lfoot -4.58284 2.52303
ltoes -4.78797
199
root 5.13784 17.7104 7.0626 -1.26991 -3.81207 -6.69554
lowerback 9.33119 2.20697 5.25019
upperback 0.73138 3.54343 1.38885
thorax -4.23882 1.66802 -1.94753
lowerneck -18.447 -3.50844 -1.6302
upperneck 14.9205 -4.70158 1.89334
head 7.71457 -2.14452 0.331293
rclavicle -1.35049e-014 -2.5842e-015
rhumerus -20.1852 -10.0684 -83.0716
rradius 33.5115
rwrist -2.29866
rhand -18.5962 23.4738
rfingers 7.12502
rthumb 7.69495 -6.36622
lclavicle -1.35049e-014 -2.5842e-015
lhumerus -38.3532 5.42842 82.4267
lradius 26.5891
lwrist -0.220988
lhand -25.1435 21.4145
lfingers 7.12502
lthumb 1.37301 51.3898
rfemur 12.4838 8.18328 34.0332
rtibia 27.7327
rfoot -18.6788 -5.51066
rtoes -6.93319
lfemur -26.1756 -3.15916 -12.9363
ltibia 22.143
lfoot -3.00505 1.42658
ltoes -5.08184
200
root 5.15798 17.7156 7.27036 -1.31858 -3.57691 -6.38159
lowerback 9.32031 2.19294 4.89697
upperback 0.662747 3.48754 1.31827
thorax -4.32466 1.64321 -1.81916
lowerneck -18.366 -3.52037 -1.56784
upperneck 14.999 -4.72141 1.80737
head 7.72325 -2.15901 0.291167
rclavicle -3.92848e-014 -4.96962e-015
rhumerus -20.5249 -10.1271 -82.9909
rradius 33.6412
rwrist -2.35426
rhand -18.5019 23.1651
rfingers 7.12502
rthumb 7.78596 -6.67152
lclavicle -3.92848e-014 -4.96962e-015
lhumerus -38.6822 5.31211 82.5602
lradius 26.9347
lwrist 0.554813
lhand -26.2296 21.3733
lfingers 7.12502
lthumb 0.323964 51.3528
rfemur 12.6005 8.11811 33.7269
rtibia 28.7663
rfoot -17.77 -5.29429
rtoes -7.67404
lfemur -26.357 -3.51598 -13.3338
ltibia 23.0489
lfoot -1.83942 0.532505
ltoes -6.20366
201
root 5.17186 17.7211 7.47117 -1.57905 -3.33503 -6.0781
lowerback 9.53627 2.15031 4.41792
upperback 0.686781 3.3944 1.3512
thorax -4.4557 1.60362 -1.51675
lowerneck -18.4886 -3.56164 -1.52416
upperneck 15.1394 -4.73959 1.53954
head 7.78281 -2.1898 0.190257
rclavicle -3.74212e-014 -3.97569e-015
rhumerus -20.6601 -10.2249 -82.8652
rradius 33.4401
rwrist -2.07241
rhand -18.7429 23.6139
rfingers 7.12502
rthumb 7.55327 -6.23124
lclavicle -3.74212e-014 -3.97569e-015
lhumerus -38.8605 5.73735 82.5547
lradius 26.9772
lwrist 0.741722
lhand -26.577 20.3076
lfingers 7.12502
lthumb -0.0114981 50.2873
rfemur 12.7728 7.78184 33.3854
rtibia 30.0116
rfoot -16.4449 -4.98445
rtoes -8.94875
lfemur -26.1178 -3.79248 -13.7369
ltibia 23.5893
lfoot -1.73775 -0.121551
ltoes -6.92159
